<?xml version="1.0" standalone="no"?>
<!DOCTYPE svg PUBLIC "-//W3C//DTD SVG 20010904//EN"
 "http://www.w3.org/TR/2001/REC-SVG-20010904/DTD/svg10.dtd">
<svg version="1.0" xmlns="http://www.w3.org/2000/svg"
 width="1563.000000pt" height="1563.000000pt" viewBox="0 0 1563.000000 1563.000000"
 preserveAspectRatio="xMidYMid meet">

<g transform="translate(0.000000,1563.000000) scale(0.100000,-0.100000)"
fill="#000000" stroke="none">
<path d="M5898 9610 c-67 -9 -117 -37 -180 -102 -60 -61 -84 -109 -98 -189
-13 -84 -14 -1711 0 -1794 5 -33 19 -78 30 -100 32 -62 113 -140 183 -175 l62
-30 935 2 935 3 44 23 c53 29 136 104 166 152 51 81 50 70 50 1030 l0 895 -24
60 c-29 73 -122 174 -190 207 l-46 23 -905 1 c-498 1 -930 -2 -962 -6z m973
-479 c9 -45 23 -55 99 -76 152 -41 208 -102 240 -258 17 -85 14 -87 -139 -87
-135 0 -151 5 -151 48 0 39 -38 91 -73 100 -86 24 -167 -81 -126 -161 31 -59
83 -97 198 -142 64 -25 139 -58 168 -75 106 -61 163 -171 163 -315 0 -204
-105 -325 -311 -359 -50 -9 -63 -28 -69 -100 l-5 -61 -53 -3 c-71 -4 -82 7
-82 78 0 69 -8 77 -83 90 -100 16 -185 74 -225 152 -28 57 -42 186 -21 199 17
10 259 12 275 1 6 -4 15 -27 19 -52 15 -90 100 -137 168 -92 45 30 56 53 57
114 0 56 -1 57 -54 105 -33 29 -80 58 -118 72 -260 100 -341 191 -341 386 0
113 24 190 80 254 44 50 124 101 160 101 34 0 83 38 83 64 0 51 8 57 73 54 61
-3 61 -3 68 -37z"/>
<path d="M1653 9340 l-23 -9 0 -940 c0 -924 0 -940 20 -951 31 -17 370 -12
397 6 l23 14 2 368 3 367 260 5 259 5 6 23 c3 12 3 96 0 185 l-5 162 -249 3
c-166 1 -254 6 -263 14 -11 8 -13 49 -11 192 l3 181 285 6 c157 3 286 6 286 7
6 8 92 299 101 338 4 17 -1 22 -27 28 -50 10 -1042 6 -1067 -4z"/>
<path d="M3013 9340 l-23 -9 0 -941 0 -940 26 -10 c14 -6 105 -10 203 -10 160
0 180 2 194 18 16 17 17 97 17 949 l0 930 -25 11 c-31 14 -358 15 -392 2z"/>
<path d="M3788 9343 c-9 -2 -23 -15 -32 -27 -27 -42 -146 -274 -146 -285 0 -7
35 -11 103 -12 56 0 110 -4 120 -7 17 -7 18 -47 17 -776 0 -705 1 -771 16
-788 15 -16 35 -18 194 -18 160 0 179 2 194 19 15 16 16 63 16 521 -1 276 1
505 4 508 4 3 6 0 6 -6 0 -7 6 -12 13 -12 6 -1 41 -51 77 -111 36 -61 72 -121
80 -134 8 -13 60 -99 115 -190 55 -92 107 -177 115 -190 8 -13 59 -97 113
-187 143 -239 108 -212 292 -216 137 -3 159 -1 176 14 18 17 19 45 19 950 0
912 0 934 -19 944 -26 13 -356 13 -382 0 -18 -10 -19 -27 -19 -514 0 -586 6
-563 -98 -388 -35 59 -158 262 -274 452 -116 190 -224 368 -241 397 -23 40
-37 53 -61 57 -35 7 -372 6 -398 -1z"/>
<path d="M8653 9342 c-13 -4 -31 -23 -42 -42 -77 -144 -131 -254 -131 -265 0
-9 23 -14 75 -17 90 -4 101 -13 81 -59 -8 -19 -31 -88 -51 -154 -21 -66 -50
-158 -66 -205 -15 -47 -44 -139 -64 -205 -20 -66 -40 -129 -45 -140 -5 -11
-27 -81 -50 -155 -23 -74 -52 -166 -65 -205 -115 -349 -137 -426 -125 -440 10
-12 46 -15 191 -15 98 0 188 4 201 9 17 7 28 25 41 73 10 34 24 81 32 103 7
22 21 69 30 105 10 36 21 69 25 73 9 11 560 11 570 0 4 -4 13 -28 19 -53 7
-25 19 -69 27 -97 7 -29 20 -78 28 -109 8 -30 22 -66 30 -80 l16 -24 203 0
c147 0 208 3 220 13 15 11 14 19 -13 97 -15 47 -38 119 -50 160 -12 41 -35
113 -50 160 -16 47 -45 139 -65 205 -21 66 -47 152 -60 190 -12 39 -33 104
-45 145 -12 41 -28 91 -35 110 -7 19 -23 69 -35 110 -38 126 -52 174 -65 210
-26 73 -85 266 -85 277 0 7 -6 27 -14 45 -8 18 -23 62 -34 98 -14 46 -27 69
-43 77 -26 14 -513 17 -556 5z m333 -580 c5 -4 24 -59 41 -122 17 -63 50 -182
73 -265 22 -82 40 -158 38 -170 -3 -19 -11 -20 -159 -23 -126 -2 -158 0 -168
12 -12 15 -10 29 32 171 43 144 89 302 94 320 21 83 27 92 49 77z"/>
<path d="M9783 9343 c-29 -6 -29 -21 3 -113 14 -41 45 -138 69 -215 24 -77 49
-156 56 -175 13 -39 10 -30 109 -340 40 -124 87 -270 105 -325 18 -55 47 -147
65 -205 17 -58 37 -121 45 -140 7 -19 30 -89 50 -155 64 -207 68 -217 93 -226
28 -11 409 -11 436 0 20 8 23 17 166 461 45 140 104 322 131 403 27 82 49 153
49 159 0 5 6 24 14 41 7 18 30 86 51 152 21 66 49 152 62 190 14 39 28 84 32
100 11 40 69 221 85 265 7 19 18 51 25 70 19 58 7 61 -224 58 l-200 -3 -17
-35 c-9 -19 -33 -96 -53 -170 -20 -74 -42 -153 -49 -175 -18 -56 -42 -137 -66
-225 -11 -41 -27 -95 -34 -120 -36 -118 -49 -164 -81 -280 -19 -69 -41 -145
-49 -170 -8 -25 -18 -59 -21 -76 -3 -18 -15 -40 -25 -49 -22 -20 -22 -19 -39
50 -6 22 -19 72 -31 110 -11 39 -27 94 -35 123 -8 28 -21 76 -29 105 -8 28
-21 75 -30 102 -8 28 -31 109 -51 180 -20 72 -43 150 -50 175 -13 44 -71 249
-101 360 -29 106 -16 100 -242 99 -108 -1 -207 -4 -219 -6z"/>
<path d="M12393 9342 c-13 -2 -23 -10 -23 -18 0 -13 72 -161 434 -896 l146
-297 0 -333 c0 -192 4 -339 10 -348 8 -12 44 -16 203 -18 177 -3 194 -2 210
15 14 17 17 58 19 358 l3 340 164 330 c281 567 411 836 411 850 0 23 -35 26
-244 23 -175 -3 -199 -5 -211 -21 -7 -9 -82 -177 -166 -373 -127 -294 -157
-354 -172 -352 -13 2 -38 48 -87 163 -38 88 -76 174 -84 190 -8 17 -21 46 -29
65 -8 19 -35 80 -60 135 -25 55 -52 117 -60 137 -8 20 -25 41 -36 48 -19 10
-361 11 -428 2z"/>
<path d="M11903 9321 c-9 -11 -58 -143 -108 -293 -51 -150 -95 -280 -98 -288
-3 -8 -19 -55 -35 -105 -63 -194 -153 -461 -161 -480 -9 -19 -39 -108 -140
-420 -23 -71 -46 -137 -50 -145 -18 -34 -43 -131 -37 -138 4 -4 94 -8 200 -10
162 -3 195 -1 205 12 12 15 57 142 246 701 52 154 126 372 165 485 180 527
220 648 220 667 0 12 -7 24 -16 27 -9 3 -96 6 -195 6 -165 0 -181 -2 -196 -19z"/>
<path d="M5472 6545 c-57 -17 -124 -70 -152 -119 -27 -47 -33 -154 -11 -196
27 -50 94 -109 145 -127 106 -36 266 -5 266 51 0 14 -9 31 -21 40 -19 13 -26
13 -48 2 -77 -40 -165 -30 -222 24 -36 34 -39 41 -39 91 0 30 6 65 13 79 32
63 143 95 227 65 43 -15 45 -15 67 8 39 39 19 60 -82 86 -52 14 -90 13 -143
-4z"/>
<path d="M7306 6542 c-27 -9 -70 -35 -96 -59 -39 -35 -50 -53 -64 -106 -16
-59 -16 -68 -2 -119 27 -89 114 -156 228 -173 69 -10 173 27 224 80 61 63 77
138 48 234 -37 127 -191 192 -338 143z m149 -83 c64 -18 115 -77 115 -134 0
-37 -35 -100 -69 -124 -40 -29 -159 -30 -205 -1 -44 27 -80 92 -72 133 11 59
41 94 98 116 62 23 79 25 133 10z"/>
<path d="M11663 6546 c-53 -17 -117 -68 -149 -117 -20 -32 -24 -52 -24 -112 0
-66 3 -78 29 -114 73 -101 193 -141 312 -104 113 36 179 117 179 221 -1 111
-63 194 -169 223 -71 20 -120 21 -178 3z m156 -93 c72 -23 95 -63 92 -161 -1
-24 -12 -42 -42 -72 -41 -40 -42 -40 -118 -40 -58 0 -83 5 -105 19 -43 29 -66
70 -66 120 0 63 32 106 95 131 62 24 80 24 144 3z"/>
<path d="M4257 6543 c-4 -3 -7 -18 -7 -33 0 -15 -12 -49 -26 -76 -14 -27 -49
-92 -76 -144 -28 -52 -59 -110 -70 -127 -22 -36 -17 -73 10 -73 9 0 51 13 92
29 48 18 105 31 157 35 l81 7 36 -35 c63 -63 121 -35 78 37 -11 17 -46 82 -77
142 -106 202 -115 218 -126 232 -12 13 -61 18 -72 6z m97 -230 c15 -30 25 -57
22 -60 -4 -4 -133 -33 -148 -33 -21 0 9 76 55 143 24 35 35 27 71 -50z"/>
<path d="M2700 6514 c-6 -14 -10 -108 -10 -209 0 -154 3 -186 16 -199 18 -19
28 -20 55 -6 15 9 19 22 19 65 0 98 20 115 131 115 44 0 51 3 59 26 7 17 6 32
-1 45 -9 18 -18 20 -77 17 -37 -2 -73 -6 -81 -8 -9 -3 -18 6 -24 27 -16 54 -1
62 121 65 106 3 107 3 116 30 18 52 1 58 -165 58 l-149 0 -10 -26z"/>
<path d="M3213 6534 c-16 -7 -18 -395 -3 -425 15 -27 58 -25 65 4 3 12 4 112
3 222 l-3 200 -25 2 c-14 1 -31 -1 -37 -3z"/>
<path d="M3466 6531 c-4 -5 -2 -21 4 -36 5 -14 10 -107 10 -206 l0 -179 26
-12 c50 -23 58 -5 64 130 3 66 8 124 12 127 8 8 24 -8 143 -149 73 -86 96
-107 124 -112 57 -11 61 2 61 227 0 211 -3 224 -52 217 -22 -3 -23 -6 -28
-140 -3 -75 -8 -139 -11 -142 -8 -8 -48 30 -124 119 -135 156 -145 165 -186
165 -21 0 -40 -4 -43 -9z"/>
<path d="M4675 6530 c-3 -5 0 -20 7 -32 9 -16 15 -83 18 -207 4 -161 7 -185
23 -195 12 -8 22 -8 35 0 14 9 18 31 22 132 3 66 8 123 11 127 8 7 50 -34 115
-112 124 -148 169 -177 207 -135 15 16 17 46 17 214 0 214 -2 222 -57 216
l-28 -3 -5 -132 c-3 -72 -8 -134 -12 -138 -11 -11 -41 16 -111 99 -125 150
-154 176 -197 176 -21 0 -42 -4 -45 -10z"/>
<path d="M5912 6532 c-9 -6 -13 -61 -14 -211 -1 -189 0 -205 17 -217 14 -10
58 -14 170 -14 169 0 189 6 183 55 l-3 30 -135 6 c-74 4 -136 7 -136 8 -11 9
-8 46 5 62 12 16 32 22 81 25 110 9 112 9 108 52 l-3 37 -97 -1 -97 0 -6 28
c-11 50 5 57 133 60 116 3 117 3 126 30 18 52 1 58 -168 58 -83 0 -157 -4
-164 -8z"/>
<path d="M6683 6533 c-10 -3 -13 -56 -13 -214 l0 -209 24 -11 c17 -8 29 -8 45
0 18 10 21 21 21 76 0 89 15 100 140 107 l45 3 0 40 0 40 -88 -1 c-85 -1 -88
0 -94 24 -12 48 5 57 113 60 102 3 134 15 134 52 0 35 -20 40 -169 39 -81 0
-152 -3 -158 -6z"/>
<path d="M7842 6528 c-15 -15 -17 -390 -2 -419 6 -10 19 -19 30 -19 34 0 50
28 50 86 0 73 11 91 59 99 59 10 74 1 119 -68 50 -77 66 -92 116 -106 53 -14
76 -1 76 45 0 24 -5 36 -17 40 -50 15 -80 34 -93 58 -13 26 -13 28 19 53 37
29 61 77 61 120 0 41 -35 92 -75 109 -45 18 -325 20 -343 2z m309 -89 c15 -7
18 -16 13 -32 -10 -32 -22 -37 -88 -37 -32 0 -76 -5 -98 -12 -33 -10 -41 -9
-49 3 -13 20 -11 63 3 77 15 15 191 16 219 1z"/>
<path d="M8712 6528 c-9 -9 -12 -67 -12 -208 0 -178 2 -198 18 -213 16 -14 42
-17 163 -17 184 0 191 2 187 49 l-3 36 -125 5 c-131 5 -150 10 -150 39 0 41
23 53 111 60 79 6 84 7 93 32 19 54 6 62 -102 58 l-97 -4 -3 34 c-2 20 2 37
10 42 7 5 61 9 119 9 117 0 133 7 127 57 l-3 28 -160 3 c-116 2 -164 -1 -173
-10z"/>
<path d="M9195 6530 c-8 -13 9 -65 52 -160 67 -148 93 -208 93 -215 0 -4 10
-20 21 -37 20 -28 25 -30 72 -25 27 2 53 11 58 18 26 42 179 411 174 419 -7
12 -65 13 -81 2 -6 -4 -40 -74 -75 -157 -49 -112 -70 -150 -83 -150 -13 0 -32
33 -71 125 -30 69 -54 130 -55 136 0 5 -9 20 -20 32 -22 23 -74 30 -85 12z"/>
<path d="M9832 6528 c-17 -17 -17 -398 1 -421 11 -16 31 -17 177 -15 l165 3 9
28 c19 53 4 60 -124 58 -63 -1 -121 3 -129 8 -16 11 -18 58 -2 74 6 6 49 13
96 15 79 4 86 6 91 27 14 56 7 60 -99 59 -96 0 -98 0 -104 24 -12 49 4 57 131
62 120 5 135 11 136 51 0 34 -21 39 -180 39 -108 0 -160 -4 -168 -12z"/>
<path d="M10376 6532 c-3 -5 -6 -100 -6 -211 -2 -208 2 -231 39 -231 30 0 41
23 41 85 0 66 11 85 58 100 50 15 85 -2 114 -54 40 -70 78 -107 123 -120 48
-13 85 6 85 43 0 26 -13 40 -50 51 -33 10 -70 44 -70 65 0 9 15 30 34 47 19
16 39 47 46 70 11 34 10 45 -8 84 -32 70 -44 74 -233 77 -96 2 -169 0 -173 -6z
m305 -92 c10 -6 19 -19 19 -30 0 -27 -30 -40 -90 -40 -28 0 -72 -5 -97 -11
-37 -10 -47 -9 -54 2 -13 20 -11 63 3 77 15 15 191 16 219 2z"/>
<path d="M10953 6532 c-8 -5 -3 -19 16 -47 163 -240 151 -216 151 -289 0 -74
12 -106 38 -106 32 0 42 22 42 92 0 80 11 106 94 221 90 125 92 137 30 137
-39 0 -56 -14 -108 -93 -23 -34 -45 -57 -56 -57 -11 0 -33 23 -56 57 -20 31
-45 64 -56 75 -18 18 -73 24 -95 10z"/>
<path d="M12145 6530 c-3 -5 1 -20 9 -32 13 -18 16 -55 16 -199 0 -98 3 -184
6 -193 8 -21 47 -20 67 2 12 14 17 43 19 127 2 68 7 110 14 112 6 2 44 -36 85
-84 122 -145 152 -173 187 -173 17 0 34 5 38 12 9 14 14 361 7 401 -7 33 -22
42 -58 33 -25 -6 -25 -7 -25 -130 0 -153 -8 -166 -66 -103 -22 23 -73 80 -113
127 -40 47 -81 91 -89 98 -19 14 -88 16 -97 2z"/>
<path d="M12823 6533 c-18 -7 -18 -414 -1 -431 13 -13 282 -17 325 -6 25 7 37
34 28 64 -6 18 -15 20 -118 20 -130 0 -154 5 -163 32 -12 38 26 60 110 66 83
5 99 15 94 59 -3 27 -5 28 -72 31 -38 2 -82 -1 -97 -7 -26 -9 -29 -8 -35 15
-3 13 -3 35 0 49 6 25 7 25 120 25 120 0 146 9 146 49 0 37 -19 41 -174 40
-83 0 -157 -3 -163 -6z"/>
</g>
</svg>
